<svg width="40" height="40" viewBox="0 0 40 40" fill="none" xmlns="http://www.w3.org/2000/svg">
  <rect width="40" height="40" rx="20" fill="#E6F7FF"/>
  <path d="M20 6C12.268 6 6 12.268 6 20C6 27.732 12.268 34 20 34C27.732 34 34 27.732 34 20C34 12.268 27.732 6 20 6ZM20 8C26.617 8 32 13.383 32 20C32 26.617 26.617 32 20 32C13.383 32 8 26.617 8 20C8 13.383 13.383 8 20 8Z" fill="#1677FF"/>
  <path d="M20 10C14.486 10 10 14.486 10 20C10 25.514 14.486 30 20 30C25.514 30 30 25.514 30 20C30 14.486 25.514 10 20 10ZM20 28C15.582 28 12 24.418 12 20C12 15.582 15.582 12 20 12C24.418 12 28 15.582 28 20C28 24.418 24.418 28 20 28Z" fill="#1677FF"/>
  <path d="M20 14C16.686 14 14 16.686 14 20C14 23.314 16.686 26 20 26C23.314 26 26 23.314 26 20C26 16.686 23.314 14 20 14ZM20 16C22.206 16 24 17.794 24 20C24 22.206 22.206 24 20 24C17.794 24 16 22.206 16 20C16 17.794 17.794 16 20 16Z" fill="#1677FF"/>
  <circle cx="20" cy="20" r="2" fill="#1677FF"/>

  <!-- 线条和点代表溯源的路径 -->
  <path d="M20 22L26 28" stroke="#1677FF" stroke-width="1.5"/>
  <path d="M20 22L14 28" stroke="#1677FF" stroke-width="1.5"/>
  <path d="M20 18L20 12" stroke="#1677FF" stroke-width="1.5"/>

  <!-- 表示食品安全的符号 -->
  <circle cx="26" cy="28" r="1.5" fill="#52C41A"/>
  <circle cx="14" cy="28" r="1.5" fill="#52C41A"/>
  <circle cx="20" cy="12" r="1.5" fill="#52C41A"/>
</svg> 